<svg width="22" height="24" viewBox="0 0 22 24" fill="none" xmlns="http://www.w3.org/2000/svg">
<path d="M20.1599 8.35534C19.3561 7.46753 18.1443 6.95164 16.4647 6.77168V5.85988C16.4647 4.21623 15.7688 2.63257 14.5451 1.5288C13.9412 0.975179 13.2272 0.555393 12.4498 0.296949C11.6724 0.0385057 10.8492 -0.0527631 10.0341 0.0291228C7.16666 0.305064 4.75518 3.07647 4.75518 6.07583V6.77168C3.07554 6.95164 1.8638 7.46753 1.05997 8.35534C-0.103783 9.65107 -0.0677905 11.3787 0.0641813 12.5784L0.904002 19.261C1.15595 21.6005 2.10375 24 7.26264 24H13.9572C19.1161 24 20.0639 21.6005 20.3159 19.273L21.1557 12.5664C21.2876 11.3787 21.3116 9.65107 20.1599 8.35534ZM10.202 1.69677C10.7834 1.63836 11.3707 1.70259 11.9257 1.88531C12.4808 2.06802 12.9913 2.36515 13.4244 2.7575C13.8574 3.14985 14.2034 3.62869 14.4398 4.16308C14.6762 4.69747 14.7979 5.27552 14.797 5.85988V6.6997H6.42282V6.07583C6.42282 3.94029 8.18645 1.88873 10.202 1.69677ZM6.31485 13.3823H6.30285C5.64299 13.3823 5.1031 12.8424 5.1031 12.1825C5.1031 11.5227 5.64299 10.9828 6.30285 10.9828C6.9747 10.9828 7.51459 11.5227 7.51459 12.1825C7.51459 12.8424 6.9747 13.3823 6.31485 13.3823ZM14.7131 13.3823H14.7011C14.0412 13.3823 13.5013 12.8424 13.5013 12.1825C13.5013 11.5227 14.0412 10.9828 14.7011 10.9828C15.3729 10.9828 15.9128 11.5227 15.9128 12.1825C15.9128 12.8424 15.3729 13.3823 14.7131 13.3823Z" fill="#707070"/>
</svg>
