<svg width="21" height="24" viewBox="0 0 21 24" fill="none" xmlns="http://www.w3.org/2000/svg">
<path d="M16.1948 0H4.63051C2.08733 0 0 2.08733 0 4.63051V21.5331C0 23.6924 1.5475 24.6041 3.44289 23.5604L9.297 20.3094C9.9208 19.9616 10.9285 19.9616 11.5403 20.3094L17.3944 23.5604C19.2898 24.6161 20.8373 23.7044 20.8373 21.5331V4.63051C20.8253 2.08733 18.7499 0 16.1948 0ZM14.7552 8.54124L9.95679 13.3397C9.77684 13.5196 9.54892 13.6036 9.32099 13.6036C9.09307 13.6036 8.86514 13.5196 8.6852 13.3397L6.88578 11.5403C6.71846 11.371 6.62462 11.1425 6.62462 10.9045C6.62462 10.6664 6.71846 10.438 6.88578 10.2687C7.23367 9.9208 7.80948 9.9208 8.15737 10.2687L9.32099 11.4323L13.4836 7.26965C13.8315 6.92177 14.4074 6.92177 14.7552 7.26965C15.1031 7.61754 15.1031 8.19336 14.7552 8.54124Z" fill="#707070"/>
</svg>
