<svg width="29" height="24" viewBox="0 0 29 24" fill="none" xmlns="http://www.w3.org/2000/svg">
<path d="M26.9702 8.01401C23.7338 2.92819 18.9982 0 14.0105 0C11.5166 0 9.09282 0.728546 6.87916 2.08757C4.6655 3.4606 2.67601 5.4641 1.05079 8.01401C-0.350263 10.2137 -0.350263 13.7863 1.05079 15.986C4.28722 21.0858 9.02277 24 14.0105 24C16.5044 24 18.9282 23.2715 21.1419 21.9124C23.3555 20.5394 25.345 18.5359 26.9702 15.986C28.3713 13.8004 28.3713 10.2137 26.9702 8.01401ZM14.0105 17.6673C10.8722 17.6673 8.35026 15.1313 8.35026 12.007C8.35026 8.88266 10.8722 6.34676 14.0105 6.34676C17.1489 6.34676 19.6708 8.88266 19.6708 12.007C19.6708 15.1313 17.1489 17.6673 14.0105 17.6673Z" fill="#707070"/>
<path d="M14.0076 8C12.9467 8 11.9293 8.42143 11.1791 9.17157C10.429 9.92172 10.0076 10.9391 10.0076 12C10.0076 13.0609 10.429 14.0783 11.1791 14.8284C11.9293 15.5786 12.9467 16 14.0076 16C16.2072 16 18.0146 14.2067 18.0146 12.007C18.0146 9.80735 16.2072 8 14.0076 8Z" fill="#707070"/>
</svg>
