<svg width="35" height="32" viewBox="0 0 35 32" fill="none" xmlns="http://www.w3.org/2000/svg">
<path d="M17.6744 27.1172L17.5 27.2916L17.3081 27.1172C9.02477 19.6011 3.54902 14.6311 3.54902 9.59128C3.54902 6.10354 6.16482 3.48774 9.65256 3.48774C12.3381 3.48774 14.9539 5.23161 15.8782 7.60327H19.1218C20.046 5.23161 22.6618 3.48774 25.3474 3.48774C28.8351 3.48774 31.4509 6.10354 31.4509 9.59128C31.4509 14.6311 25.9752 19.6011 17.6744 27.1172ZM25.3474 0C22.313 0 19.4008 1.41253 17.5 3.62725C15.5992 1.41253 12.6869 0 9.65256 0C4.28144 0 0.0612793 4.20272 0.0612793 9.59128C0.0612793 16.1657 5.99043 21.5542 14.9714 29.6981L17.5 32L20.0286 29.6981C29.0095 21.5542 34.9387 16.1657 34.9387 9.59128C34.9387 4.20272 30.7185 0 25.3474 0Z" fill="#636363" fill-opacity="0.35"/>
</svg>
