<svg width="49" height="32" viewBox="0 0 49 32" fill="none" xmlns="http://www.w3.org/2000/svg">
<path d="M10.2374 7.39352H2.85542C1.50207 7.39352 0.394775 6.28623 0.394775 4.93287C0.394775 3.57951 1.50207 2.47222 2.85542 2.47222H10.2374C11.5907 2.47222 12.698 3.57951 12.698 4.93287C12.698 6.28623 11.5907 7.39352 10.2374 7.39352ZM10.2374 14.7755H2.85542C1.50207 14.7755 0.394775 15.8828 0.394775 17.2361C0.394775 18.5895 1.50207 19.6968 2.85542 19.6968H10.2374C11.5907 19.6968 12.698 18.5895 12.698 17.2361C12.698 15.8828 11.5907 14.7755 10.2374 14.7755ZM44.3912 30.2529L36.7139 22.5757C34.5978 23.9537 32.0633 24.7411 29.332 24.5934C23.5003 24.3228 18.5051 19.7706 17.7177 13.9881C17.4579 12.0661 17.6548 10.11 18.2927 8.27845C18.9305 6.44691 19.9912 4.79157 21.3887 3.44681C22.7862 2.10205 24.4811 1.10576 26.3358 0.538819C28.1905 -0.0281254 30.1528 -0.149749 32.0633 0.18382C36.8616 0.995834 40.8478 4.73602 41.9059 9.48507C42.7179 13.0776 41.9305 16.4241 40.1835 19.0816L47.8853 26.7834C48.8449 27.7431 48.8449 29.2933 47.8853 30.2529C46.9256 31.2126 45.3508 31.2126 44.3912 30.2529ZM37.3045 12.3148C37.3045 8.25475 33.9826 4.93287 29.9226 4.93287C25.8625 4.93287 22.5406 8.25475 22.5406 12.3148C22.5406 16.3749 25.8625 19.6968 29.9226 19.6968C33.9826 19.6968 37.3045 16.3749 37.3045 12.3148ZM2.85542 32H22.5406C23.894 32 25.0013 30.8927 25.0013 29.5394C25.0013 28.186 23.894 27.0787 22.5406 27.0787H2.85542C1.50207 27.0787 0.394775 28.186 0.394775 29.5394C0.394775 30.8927 1.50207 32 2.85542 32Z" fill="#636363" fill-opacity="0.35"/>
</svg>
