<svg width="27" height="24" viewBox="0 0 27 24" fill="none" xmlns="http://www.w3.org/2000/svg">
<path d="M19.4697 0C17.0292 0 14.8449 1.18652 13.4831 3.00674C12.7876 2.0748 11.8844 1.31783 10.8452 0.795902C9.80604 0.273975 8.65951 0.00146367 7.49663 0C3.3573 0 0 3.37079 0 7.53708C0 9.14157 0.25618 10.6247 0.701124 12C2.83146 18.7416 9.39775 22.773 12.6472 23.8787C13.1056 24.0404 13.8607 24.0404 14.3191 23.8787C17.5685 22.773 24.1348 18.7416 26.2652 12C26.7101 10.6247 26.9663 9.14157 26.9663 7.53708C26.9663 3.37079 23.609 0 19.4697 0Z" fill="#707070"/>
</svg>
