<svg width="24" height="24" viewBox="0 0 24 24" fill="none" xmlns="http://www.w3.org/2000/svg">
<path d="M17.028 0H6.972C2.604 0 0 2.604 0 6.972V17.016C0 21.396 2.604 24 6.972 24H17.016C21.384 24 23.988 21.396 23.988 17.028V6.972C24 2.604 21.396 0 17.028 0ZM18.312 9.552L15.54 13.128C15.192 13.572 14.7 13.86 14.136 13.92C13.572 13.992 13.02 13.836 12.576 13.488L10.38 11.76C10.3492 11.733 10.3126 11.7135 10.2731 11.7031C10.2335 11.6927 10.1921 11.6916 10.152 11.7C10.104 11.7 10.02 11.724 9.948 11.82L7.092 15.528C6.912 15.756 6.648 15.876 6.384 15.876C6.192 15.876 6 15.816 5.832 15.684C5.73823 15.6123 5.6595 15.5228 5.60031 15.4207C5.54112 15.3186 5.50263 15.2058 5.48703 15.0888C5.47143 14.9718 5.47903 14.8529 5.50939 14.7388C5.53976 14.6247 5.59229 14.5178 5.664 14.424L8.52 10.716C8.868 10.272 9.36 9.984 9.924 9.912C10.476 9.84 11.04 9.996 11.484 10.344L13.68 12.072C13.764 12.144 13.848 12.144 13.908 12.132C13.956 12.132 14.04 12.108 14.112 12.012L16.884 8.436C16.9557 8.34193 17.0454 8.26313 17.148 8.20423C17.2505 8.14532 17.3638 8.10749 17.4812 8.09296C17.5986 8.07843 17.7176 8.08749 17.8315 8.11961C17.9453 8.15173 18.0515 8.20626 18.144 8.28C18.54 8.604 18.612 9.168 18.312 9.552Z" fill="#1877F2"/>
</svg>
