<svg width="32" height="32" viewBox="0 0 32 32" fill="none" xmlns="http://www.w3.org/2000/svg">
<path d="M19.6245 31.0788C19.0104 31.6929 18.2495 32 17.3417 32C16.4339 32 15.6729 31.6929 15.0588 31.0788L0.961201 16.9812C0.667501 16.6875 0.434143 16.3404 0.261127 15.9399C0.0870423 15.5394 0 15.1122 0 14.6583V3.20401C0 2.3229 0.313993 1.56836 0.941978 0.940375C1.56889 0.313458 2.3229 0 3.20401 0H14.6583C15.1122 0 15.5394 0.086508 15.9399 0.259524C16.3404 0.433609 16.6875 0.667501 16.9812 0.961201L31.0788 15.0989C31.6929 15.713 32 16.467 32 17.3609C32 18.2559 31.6929 19.0104 31.0788 19.6245L19.6245 31.0788ZM17.3417 28.836L28.796 17.3817L14.6583 3.20401H3.20401V14.6583L17.3417 28.836ZM7.20901 9.61201C7.87651 9.61201 8.44362 9.37812 8.91034 8.91034C9.37812 8.44362 9.61201 7.87651 9.61201 7.20901C9.61201 6.54151 9.37812 5.9744 8.91034 5.50768C8.44362 5.0399 7.87651 4.80601 7.20901 4.80601C6.54151 4.80601 5.9744 5.0399 5.50768 5.50768C5.0399 5.9744 4.80601 6.54151 4.80601 7.20901C4.80601 7.87651 5.0399 8.44362 5.50768 8.91034C5.9744 9.37812 6.54151 9.61201 7.20901 9.61201Z" fill="#636363" fill-opacity="0.35"/>
</svg>
