<svg width="20" height="20" viewBox="0 0 20 20" fill="none" xmlns="http://www.w3.org/2000/svg">
<path d="M12.25 19.4C11.8667 19.7833 11.3917 19.975 10.825 19.975C10.2583 19.975 9.78333 19.7833 9.4 19.4L0.6 10.6C0.416667 10.4167 0.271 10.2 0.163 9.95C0.0543334 9.7 0 9.43333 0 9.15V2C0 1.45 0.196 0.979 0.588 0.587C0.979333 0.195667 1.45 0 2 0H9.15C9.43333 0 9.7 0.0539999 9.95 0.162C10.2 0.270667 10.4167 0.416667 10.6 0.6L19.4 9.425C19.7833 9.80833 19.975 10.279 19.975 10.837C19.975 11.3957 19.7833 11.8667 19.4 12.25L12.25 19.4ZM4.5 6C4.91667 6 5.27067 5.854 5.562 5.562C5.854 5.27067 6 4.91667 6 4.5C6 4.08333 5.854 3.72933 5.562 3.438C5.27067 3.146 4.91667 3 4.5 3C4.08333 3 3.72933 3.146 3.438 3.438C3.146 3.72933 3 4.08333 3 4.5C3 4.91667 3.146 5.27067 3.438 5.562C3.72933 5.854 4.08333 6 4.5 6Z" fill="#707070"/>
</svg>
